<?xml version="1.0" standalone="no"?>
<!DOCTYPE svg PUBLIC "-//W3C//DTD SVG 20010904//EN"
 "http://www.w3.org/TR/2001/REC-SVG-20010904/DTD/svg10.dtd">
<svg version="1.0" xmlns="http://www.w3.org/2000/svg"
 width="800.000000pt" height="800.000000pt" viewBox="0 0 800.000000 800.000000"
 preserveAspectRatio="xMidYMid meet">
<metadata>
Created by potrace 1.11, written by Peter Selinger 2001-2013
</metadata>
<g transform="translate(0.000000,800.000000) scale(0.100000,-0.100000)"
fill="#000000" stroke="none">
<path d="M2775 6674 c-247 -31 -432 -89 -620 -192 -87 -48 -108 -62 -237 -165
-110 -87 -186 -177 -149 -177 5 0 29 -16 53 -36 23 -20 63 -52 88 -72 25 -20
95 -86 157 -146 62 -61 115 -112 118 -113 13 -4 164 -205 237 -315 74 -111
111 -175 173 -293 35 -67 140 -323 151 -370 4 -16 10 -34 14 -40 4 -5 12 -30
18 -55 72 -321 147 -540 238 -698 107 -188 174 -293 238 -377 254 -331 564
-584 961 -783 172 -86 481 -201 584 -218 l38 -6 -8 53 c-9 58 -23 144 -38 224
-24 131 -98 377 -174 579 l-14 39 57 79 c110 154 209 385 249 582 9 47 20 88
23 91 7 8 41 -50 116 -200 90 -177 162 -349 226 -535 70 -206 69 -205 141
-515 22 -97 33 -162 50 -300 9 -71 18 -144 21 -161 4 -30 7 -31 64 -37 75 -8
90 -2 182 71 239 193 443 523 517 836 55 233 54 530 -3 749 -64 244 -194 487
-361 675 -213 237 -538 418 -870 482 -131 26 -328 32 -475 16 l-76 -8 -13 76
c-26 159 -104 356 -203 519 -219 360 -604 632 -1003 712 -147 29 -363 42 -470
29z"/>
<path d="M1384 5443 c-3 -21 -10 -56 -15 -78 -17 -74 -23 -329 -10 -427 35
-272 135 -530 290 -748 57 -80 227 -258 293 -306 l48 -36 -34 -41 c-215 -268
-343 -676 -322 -1032 11 -189 64 -423 121 -531 8 -16 15 -35 15 -41 0 -33 24
-4 77 95 138 257 240 541 307 857 62 294 72 650 25 930 -23 143 -107 460 -129
490 -4 6 -13 28 -20 50 -7 22 -18 51 -26 65 -7 14 -31 63 -54 110 -79 162
-239 385 -385 536 -56 59 -155 144 -166 144 -5 0 -11 -17 -15 -37z"/>
<path d="M2817 3023 c-2 -4 -10 -33 -17 -63 -46 -204 -129 -442 -236 -677 -97
-212 -138 -289 -258 -481 -39 -62 -78 -123 -86 -137 -13 -22 -12 -25 10 -45
49 -42 191 -131 277 -174 111 -55 238 -100 339 -121 42 -9 80 -17 83 -19 11
-7 167 -19 256 -20 83 -1 273 16 313 28 9 3 32 8 50 11 100 17 322 106 437
175 28 17 57 33 65 37 32 14 138 101 230 190 118 112 253 284 233 296 -4 2
-55 19 -113 36 -265 80 -573 217 -820 363 -241 143 -473 323 -662 512 -53 54
-98 94 -101 89z"/>
</g>
</svg>
